<?xml version="1.0" standalone="no"?>
<!DOCTYPE svg PUBLIC "-//W3C//DTD SVG 20010904//EN"
 "http://www.w3.org/TR/2001/REC-SVG-20010904/DTD/svg10.dtd">
<svg version="1.0" xmlns="http://www.w3.org/2000/svg"
 width="640.000000pt" height="640.000000pt" viewBox="0 0 640.000000 640.000000"
 preserveAspectRatio="xMidYMid meet">
<metadata>
Created by potrace 1.14, written by Peter Selinger 2001-2017
</metadata>
<g transform="translate(0.000000,640.000000) scale(0.100000,-0.100000)"
fill="#000000" stroke="none">
<path d="M0 3200 l0 -2400 3200 0 3200 0 0 2400 0 2400 -3200 0 -3200 0 0
-2400z m3502 1126 c61 -19 84 -32 136 -74 51 -42 113 -144 137 -227 10 -33 28
-94 40 -135 13 -41 32 -115 44 -165 12 -49 33 -136 47 -191 14 -56 29 -142 34
-190 5 -49 21 -153 35 -230 13 -78 30 -205 36 -284 l12 -142 93 7 c90 7 93 7
118 -18 18 -18 26 -37 26 -59 0 -68 -49 -98 -162 -98 -58 0 -58 0 -58 -30 0
-16 8 -80 17 -142 13 -88 17 -173 15 -378 -1 -312 -6 -355 -38 -387 -33 -33
-96 -32 -129 2 -27 26 -30 55 -15 120 18 77 15 438 -6 629 l-19 178 -60 -6
c-33 -3 -130 -8 -215 -11 -181 -6 -353 -21 -500 -42 -200 -28 -236 -32 -450
-43 -118 -6 -226 -13 -240 -16 -14 -3 -61 -10 -105 -14 -67 -7 -214 -28 -410
-59 l-39 -6 -42 -125 c-23 -69 -50 -152 -59 -185 -45 -156 -78 -225 -115 -245
-33 -18 -79 -12 -105 15 -32 31 -32 78 -1 147 14 29 35 87 47 128 12 41 36
120 54 175 23 69 31 112 28 138 -6 42 14 82 47 92 11 3 20 12 20 18 0 40 143
350 181 393 11 11 19 25 19 31 0 5 13 29 30 51 16 23 30 46 30 50 0 5 15 29
34 53 18 24 36 55 41 67 4 13 42 76 84 140 43 65 100 153 127 197 100 164 342
488 453 608 109 117 349 252 501 281 47 9 235 -3 282 -18z"/>
<path d="M3270 4174 c-50 -10 -137 -46 -227 -95 -125 -68 -261 -203 -411 -409
-18 -25 -61 -83 -95 -130 -75 -104 -98 -137 -115 -170 -19 -39 -51 -90 -119
-190 -35 -51 -63 -95 -63 -99 0 -3 -21 -37 -45 -76 -109 -167 -190 -310 -241
-422 l-35 -76 38 6 c47 7 249 33 358 47 44 6 175 15 290 21 116 5 273 19 350
30 214 31 401 49 497 49 84 0 390 19 396 25 8 7 -21 278 -44 405 -14 80 -29
181 -33 225 -8 82 -51 275 -102 450 -16 55 -39 133 -50 174 -35 130 -78 183
-172 215 -52 17 -138 27 -177 20z"/>
</g>
</svg>
